<svg width="228" height="1172" fill="none" xmlns="http://www.w3.org/2000/svg"><path d="M227.2 252.4v2h2v-2h-2zm0-70.2h2v-2h-2v2zM99.1 70.9l.181 1.992 1.819-.166V70.9h-2zm0-70.8h2v-2h-2v2zM-1.3 135.4c0 48.028 15.858 77.902 37.867 95.717C58.497 248.868 86.23 254.4 109.6 254.4v-4c-22.831 0-49.546-5.418-70.517-22.392C18.193 211.098 2.7 182.472 2.7 135.4h-4zm110.9 119h117.6v-4H109.6v4zm119.6-2v-70.2h-4v70.2h4zm-2-72.2H111.4v4h115.8v-4zm-115.8 0c-16.647 0-29.888-4.126-38.957-12.483-9.04-8.331-14.243-21.154-14.243-39.217h-4c0 18.837 5.447 32.864 15.532 42.158C79.788 179.925 94.147 184.2 111.4 184.2v-4zm-53.2-51.7v-3.6h-4v3.6h4zm0-3.6c0-23.639 8.043-36.284 16.962-43.194 9.025-6.991 19.275-8.374 24.12-8.814l-.363-3.984c-5.056.46-16.256 1.927-26.206 9.636C62.657 86.334 54.2 100.239 54.2 124.9h4zm42.9-54V.1h-4v70.8h4zm-2-72.8h-1.8v4h1.8v-4zm-1.8 0c-21.525 0-46.219 6.487-65.543 24.928C12.403 41.497-1.3 71.702-1.3 118.6h4c0-46.102 13.447-75.147 31.818-92.678C52.918 8.362 76.525 2.1 97.3 2.1v-4zM-1.3 118.6v16.8h4v-16.8h-4zm228.5 195.445h2v-2h-2v2zm-223.2 0v-2H2v2h2zm0 238.2H2v2h2v-2zm51.9 0v2h2v-2h-2zm0-169.2v-2h-2v2h2zm36.6 0h2v-2h-2v2zm0 162.3h-2v2h2v-2zm51 0v2h2v-2h-2zm0-162.3v-2h-2v2h2zm33 0h2v-2h-2v2zm0 166.2h-2v2h2v-2zm50.7 0v2h2v-2h-2zm0-237.2H4v4h223.2v-4zm-225.2 2v238.2h4v-238.2H2zm2 240.2h51.9v-4H4v4zm53.9-2v-169.2h-4v169.2h4zm-2-167.2h36.6v-4H55.9v4zm34.6-2v162.3h4v-162.3h-4zm2 164.3h51v-4h-51v4zm53-2v-162.3h-4v162.3h4zm-2-160.3h33v-4h-33v4zm31-2v166.2h4v-166.2h-4zm2 168.2h50.7v-4h-50.7v4zm52.7-2v-235.2h-4v235.2h4zM4 695.603v-2H2v2h2zm0 70.5H2v2h2v-2zm170.4 0h2v-2h-2v2zm0 96.3h-2v2h2v-2zm52.8 0v2h2v-2h-2zm0-262.8h2v-2h-2v2zm-52.8 0v-2h-2v2h2zm0 96v2h2v-2h-2zm-172.4 0v70.5h4v-70.5H2zm2 72.5h170.4v-4H4v4zm168.4-2v96.3h4v-96.3h-4zm2 98.3h52.8v-4h-52.8v4zm54.8-2v-262.8h-4v262.8h4zm-2-264.8h-52.8v4h52.8v-4zm-54.8 2v96h4v-96h-4zm2 94H4v4h170.4v-4zM4 1005.1v-2H2v2h2zm0 70.5H2v2h2v-2zm170.4 0h2v-2h-2v2zm0 96.3h-2v2h2v-2zm52.8 0v2h2v-2h-2zm0-262.805h2v-2h-2v2zm-52.8 0v-2h-2v2h2zm0 96.005v2h2v-2h-2zm-172.4 0v70.5h4v-70.5H2zm2 72.5h170.4v-4H4v4zm168.4-2v96.3h4v-96.3h-4zm2 98.3h52.8v-4h-52.8v4zm54.8-2V909.095h-4V1171.9h4zm-2-264.805h-52.8v4h52.8v-4zm-54.8 2v96.005h4v-96.005h-4zm2 94.005H4v4h170.4v-4z" fill="#fff"/></svg>