<svg width="100" height="100" fill="none" xmlns="http://www.w3.org/2000/svg"><path d="M0 50C0 22.386 22.386 0 50 0s50 22.386 50 50-22.386 50-50 50S0 77.614 0 50z" fill="#F8F8F8"/><path d="M39.997 80c5.523 0 10-4.478 10-10V60h-10c-5.523 0-10 4.477-10 10 0 5.522 4.477 10 10 10zm-10-30c0-5.523 4.477-10 10-10h10v20h-10c-5.523 0-10-4.477-10-10zm0-20c0-5.524 4.477-10 10-10h10v20h-10c-5.523 0-10-4.478-10-10zM50 20h10c5.523 0 10 4.476 10 10 0 5.522-4.477 10-10 10H50V20zm20 30c0 5.523-4.477 10-10 10s-10-4.477-10-10 4.477-10 10-10 10 4.477 10 10z" fill="#FF4656"/></svg>