<svg width="228" height="1172" viewBox="0 0 228 1172" fill="none" xmlns="http://www.w3.org/2000/svg">
<path d="M227.2 252.4L227.2 254.4L229.2 254.4L229.2 252.4L227.2 252.4ZM227.2 182.2L229.2 182.2L229.2 180.2L227.2 180.2L227.2 182.2ZM99.1 70.9L99.2811 72.8918L101.1 72.7264L101.1 70.9L99.1 70.9ZM99.1 0.0999907L101.1 0.0999908L101.1 -1.90001L99.1 -1.90001L99.1 0.0999907ZM-1.29999 135.4C-1.3 183.428 14.5577 213.302 36.5667 231.117C58.4965 248.868 86.2315 254.4 109.6 254.4L109.6 250.4C86.7685 250.4 60.0535 244.982 39.0833 228.008C18.1923 211.098 2.7 182.472 2.70001 135.4L-1.29999 135.4ZM109.6 254.4L227.2 254.4L227.2 250.4L109.6 250.4L109.6 254.4ZM229.2 252.4L229.2 182.2L225.2 182.2L225.2 252.4L229.2 252.4ZM227.2 180.2L111.4 180.2L111.4 184.2L227.2 184.2L227.2 180.2ZM111.4 180.2C94.753 180.2 81.5119 176.074 72.4429 167.717C63.4027 159.386 58.2 146.563 58.2 128.5L54.2 128.5C54.2 147.337 59.6473 161.364 69.7321 170.658C79.7881 179.925 94.147 184.2 111.4 184.2L111.4 180.2ZM58.2 128.5L58.2 124.9L54.2 124.9L54.2 128.5L58.2 128.5ZM58.2 124.9C58.2 101.261 66.2429 88.616 75.1623 81.7061C84.1867 74.7148 94.4369 73.3322 99.2811 72.8918L98.9189 68.9082C93.863 69.3678 82.6633 70.8352 72.7126 78.5439C62.6571 86.334 54.2 100.239 54.2 124.9L58.2 124.9ZM101.1 70.9L101.1 0.0999908L97.1 0.0999907L97.1 70.9L101.1 70.9ZM99.1 -1.90001L97.3 -1.90001L97.3 2.09999L99.1 2.09999L99.1 -1.90001ZM97.3 -1.90001C75.7752 -1.90001 51.0812 4.58722 31.7567 23.0281C12.403 41.4969 -1.29999 71.7017 -1.29999 118.6L2.70001 118.6C2.70001 72.4983 16.1471 43.4531 34.5182 25.9219C52.9188 8.36276 76.5248 2.09999 97.3 2.09999L97.3 -1.90001ZM-1.29999 118.6L-1.29999 135.4L2.70001 135.4L2.70001 118.6L-1.29999 118.6ZM227.2 314.045L229.2 314.045L229.2 312.045L227.2 312.045L227.2 314.045ZM3.99999 314.045L3.99999 312.045L1.99999 312.045L1.99999 314.045L3.99999 314.045ZM3.99998 552.245L1.99998 552.245L1.99998 554.245L3.99998 554.245L3.99998 552.245ZM55.9 552.245L55.9 554.245L57.9 554.245L57.9 552.245L55.9 552.245ZM55.9 383.045L55.9 381.045L53.9 381.045L53.9 383.045L55.9 383.045ZM92.5 383.045L94.5 383.045L94.5 381.045L92.5 381.045L92.5 383.045ZM92.5 545.345L90.5 545.345L90.5 547.345L92.5 547.345L92.5 545.345ZM143.5 545.345L143.5 547.345L145.5 547.345L145.5 545.345L143.5 545.345ZM143.5 383.045L143.5 381.045L141.5 381.045L141.5 383.045L143.5 383.045ZM176.5 383.045L178.5 383.045L178.5 381.045L176.5 381.045L176.5 383.045ZM176.5 549.245L174.5 549.245L174.5 551.245L176.5 551.245L176.5 549.245ZM227.2 549.245L227.2 551.245L229.2 551.245L229.2 549.245L227.2 549.245ZM227.2 312.045L3.99999 312.045L3.99999 316.045L227.2 316.045L227.2 312.045ZM1.99999 314.045L1.99998 552.245L5.99998 552.245L5.99999 314.045L1.99999 314.045ZM3.99998 554.245L55.9 554.245L55.9 550.245L3.99998 550.245L3.99998 554.245ZM57.9 552.245L57.9 383.045L53.9 383.045L53.9 552.245L57.9 552.245ZM55.9 385.045L92.5 385.045L92.5 381.045L55.9 381.045L55.9 385.045ZM90.5 383.045L90.5 545.345L94.5 545.345L94.5 383.045L90.5 383.045ZM92.5 547.345L143.5 547.345L143.5 543.345L92.5 543.345L92.5 547.345ZM145.5 545.345L145.5 383.045L141.5 383.045L141.5 545.345L145.5 545.345ZM143.5 385.045L176.5 385.045L176.5 381.045L143.5 381.045L143.5 385.045ZM174.5 383.045L174.5 549.245L178.5 549.245L178.5 383.045L174.5 383.045ZM176.5 551.245L227.2 551.245L227.2 547.245L176.5 547.245L176.5 551.245ZM229.2 549.245L229.2 314.045L225.2 314.045L225.2 549.245L229.2 549.245ZM3.99997 695.603L3.99997 693.603L1.99997 693.603L1.99997 695.603L3.99997 695.603ZM3.99997 766.103L1.99997 766.103L1.99997 768.103L3.99997 768.103L3.99997 766.103ZM174.4 766.103L176.4 766.103L176.4 764.103L174.4 764.103L174.4 766.103ZM174.4 862.403L172.4 862.403L172.4 864.403L174.4 864.403L174.4 862.403ZM227.2 862.403L227.2 864.403L229.2 864.403L229.2 862.403L227.2 862.403ZM227.2 599.603L229.2 599.603L229.2 597.603L227.2 597.603L227.2 599.603ZM174.4 599.603L174.4 597.603L172.4 597.603L172.4 599.603L174.4 599.603ZM174.4 695.603L174.4 697.603L176.4 697.603L176.4 695.603L174.4 695.603ZM1.99997 695.603L1.99997 766.103L5.99997 766.103L5.99997 695.603L1.99997 695.603ZM3.99997 768.103L174.4 768.103L174.4 764.103L3.99997 764.103L3.99997 768.103ZM172.4 766.103L172.4 862.403L176.4 862.403L176.4 766.103L172.4 766.103ZM174.4 864.403L227.2 864.403L227.2 860.403L174.4 860.403L174.4 864.403ZM229.2 862.403L229.2 599.603L225.2 599.603L225.2 862.403L229.2 862.403ZM227.2 597.603L174.4 597.603L174.4 601.603L227.2 601.603L227.2 597.603ZM172.4 599.603L172.4 695.603L176.4 695.603L176.4 599.603L172.4 599.603ZM174.4 693.603L3.99997 693.603L3.99997 697.603L174.4 697.603L174.4 693.603ZM3.99996 1005.1L3.99996 1003.1L1.99996 1003.1L1.99996 1005.1L3.99996 1005.1ZM3.99995 1075.6L1.99995 1075.6L1.99995 1077.6L3.99995 1077.6L3.99995 1075.6ZM174.4 1075.6L176.4 1075.6L176.4 1073.6L174.4 1073.6L174.4 1075.6ZM174.4 1171.9L172.4 1171.9L172.4 1173.9L174.4 1173.9L174.4 1171.9ZM227.2 1171.9L227.2 1173.9L229.2 1173.9L229.2 1171.9L227.2 1171.9ZM227.2 909.095L229.2 909.095L229.2 907.095L227.2 907.095L227.2 909.095ZM174.4 909.095L174.4 907.095L172.4 907.095L172.4 909.095L174.4 909.095ZM174.4 1005.1L174.4 1007.1L176.4 1007.1L176.4 1005.1L174.4 1005.1ZM1.99996 1005.1L1.99995 1075.6L5.99995 1075.6L5.99996 1005.1L1.99996 1005.1ZM3.99995 1077.6L174.4 1077.6L174.4 1073.6L3.99995 1073.6L3.99995 1077.6ZM172.4 1075.6L172.4 1171.9L176.4 1171.9L176.4 1075.6L172.4 1075.6ZM174.4 1173.9L227.2 1173.9L227.2 1169.9L174.4 1169.9L174.4 1173.9ZM229.2 1171.9L229.2 909.095L225.2 909.095L225.2 1171.9L229.2 1171.9ZM227.2 907.095L174.4 907.095L174.4 911.095L227.2 911.095L227.2 907.095ZM172.4 909.095L172.4 1005.1L176.4 1005.1L176.4 909.095L172.4 909.095ZM174.4 1003.1L3.99996 1003.1L3.99996 1007.1L174.4 1007.1L174.4 1003.1Z" fill="white"/>
</svg>
